<svg xmlns="http://www.w3.org/2000/svg" width="64" height="64" viewBox="0 0 64 64">
  <defs>
    <linearGradient id="g" x1="0" y1="0" x2="1" y2="1">
      <stop offset="0" stop-color="#6a4cff"/>
      <stop offset="0.55" stop-color="#17b8a6"/>
      <stop offset="1" stop-color="#ff6a88"/>
    </linearGradient>
  </defs>
  <rect x="6" y="6" width="52" height="52" rx="18" fill="url(#g)"/>
  <path d="M22 28c0-6 5-10 11-10 5 0 9 2 9 6 0 3-2 5-5 6 4 1 7 4 7 8 0 6-6 10-13 10-6 0-9-2-11-4l4-5c1 2 4 3 7 3 4 0 6-2 6-4 0-3-3-4-7-4h-2v-6h2c3 0 5-1 5-3s-2-3-4-3c-3 0-6 2-6 5h-7z" fill="#fff" opacity="0.95"/>
</svg>
